<?xml version="1.0" encoding="UTF-8"?>
<svg width="249px" height="349px" viewBox="0 0 249 349" version="1.1" xmlns="http://www.w3.org/2000/svg" xmlns:xlink="http://www.w3.org/1999/xlink">
    <title>Artboard</title>
    <g id="Artboard" stroke="none" fill="none">
        <g id="Group-6" stroke-width="1" fill-rule="evenodd" transform="translate(16, 6)">
            <g id="Group-5">
                <rect id="Rectangle" stroke="#EF4035" x="0.5" y="0.5" width="23" height="23"></rect>
                <text id="0" font-family="ArialMT, Arial" font-size="12" font-weight="normal" fill="#040404">
                    <tspan x="8.66308594" y="16">0</tspan>
                </text>
            </g>
            <g id="Group-2" transform="translate(0, 79)">
                <rect id="Rectangle" stroke="#EF4035" x="0.5" y="0.5" width="23" height="23"></rect>
                <text id="3" font-family="ArialMT, Arial" font-size="12" font-weight="normal" fill="#040404">
                    <tspan x="9.66308594" y="16">3</tspan>
                </text>
            </g>
            <g id="Group-3" transform="translate(0, 52)">
                <rect id="Rectangle" stroke="#EF4035" fill="#C9D6A5" x="0.5" y="0.5" width="23" height="23"></rect>
                <text id="2" font-family="ArialMT, Arial" font-size="12" font-weight="normal" fill="#040404">
                    <tspan x="8.66308594" y="16">2</tspan>
                </text>
            </g>
            <g id="Group-4" transform="translate(0, 26)">
                <rect id="Rectangle" stroke="#EF4035" x="0.5" y="0.5" width="23" height="23"></rect>
                <text id="1" font-family="ArialMT, Arial" font-size="12" font-weight="normal" fill="#040404">
                    <tspan x="8.66308594" y="16">1</tspan>
                </text>
            </g>
            <g id="Group-5" transform="translate(0, 105)">
                <rect id="Rectangle" stroke="#BDBBBB" x="0.5" y="0.5" width="23" height="23"></rect>
                <text id="4" font-family="ArialMT, Arial" font-size="12" font-weight="normal" fill="#040404">
                    <tspan x="8.66308594" y="16">4</tspan>
                </text>
            </g>
            <g id="Group-2" transform="translate(0, 183)">
                <rect id="Rectangle" stroke="#BDBBBB" fill="#C9D6A5" x="0.5" y="0.5" width="23" height="23"></rect>
                <text id="7" font-family="ArialMT, Arial" font-size="12" font-weight="normal" fill="#040404">
                    <tspan x="8.66308594" y="16">7</tspan>
                </text>
            </g>
            <g id="Group-3" transform="translate(0, 157)">
                <rect id="Rectangle" stroke="#BDBBBB" x="0.5" y="0.5" width="23" height="23"></rect>
                <text id="6" font-family="ArialMT, Arial" font-size="12" font-weight="normal" fill="#040404">
                    <tspan x="8.66308594" y="16">6</tspan>
                </text>
            </g>
            <g id="Group-4" transform="translate(0, 131)">
                <rect id="Rectangle" stroke="#BDBBBB" x="0.5" y="0.5" width="23" height="23"></rect>
                <text id="5" font-family="ArialMT, Arial" font-size="12" font-weight="normal" fill="#040404">
                    <tspan x="8.66308594" y="16">5</tspan>
                </text>
            </g>
            <g id="Group-5" transform="translate(0, 209)">
                <rect id="Rectangle" stroke="#BDBBBB" fill="#C9D6A5" x="0.5" y="0.5" width="23" height="23"></rect>
                <text id="8" font-family="ArialMT, Arial" font-size="12" font-weight="normal" fill="#040404">
                    <tspan x="8.66308594" y="16">8</tspan>
                </text>
            </g>
            <g id="Group-5" transform="translate(0, 261)">
                <rect id="Rectangle" stroke="#BDBBBB" x="0.5" y="0.5" width="23" height="23"></rect>
                <text id="10" font-family="ArialMT, Arial" font-size="12" font-weight="normal" fill="#040404">
                    <tspan x="5.32617188" y="16">10</tspan>
                </text>
            </g>
            <g id="Group-4" transform="translate(0, 235)">
                <rect id="Rectangle" stroke="#BDBBBB" fill="#C9D6A5" x="0.5" y="0.5" width="23" height="23"></rect>
                <text id="9" font-family="ArialMT, Arial" font-size="12" font-weight="normal" fill="#040404">
                    <tspan x="8.66308594" y="16">9</tspan>
                </text>
            </g>
            <g id="Group-5" transform="translate(0, 313)">
                <rect id="Rectangle" stroke="#BDBBBB" x="0.5" y="0.5" width="23" height="23"></rect>
                <text id="12" font-family="ArialMT, Arial" font-size="12" font-weight="normal" fill="#040404">
                    <tspan x="5.32617188" y="16">12</tspan>
                </text>
            </g>
            <g id="Group-5" transform="translate(0, 287)">
                <rect id="Rectangle" stroke="#BDBBBB" x="0.5" y="0.5" width="23" height="23"></rect>
                <text id="11" font-family="ArialMT, Arial" font-size="12" font-weight="normal" fill="#040404">
                    <tspan x="5.77148438" y="16">11</tspan>
                </text>
            </g>
        </g>
        <g id="Group-5" stroke-width="1" fill-rule="evenodd" transform="translate(77, 6)">
            <rect id="Rectangle" stroke="#EF4035" x="0.5" y="0.5" width="23" height="23"></rect>
            <text id="0" font-family="ArialMT, Arial" font-size="12" font-weight="normal" fill="#040404">
                <tspan x="8.66308594" y="16">0</tspan>
            </text>
        </g>
        <g id="Group-2" stroke-width="1" fill-rule="evenodd" transform="translate(77, 85)">
            <rect id="Rectangle" stroke="#EF4035" x="0.5" y="0.5" width="23" height="23"></rect>
            <text id="3" font-family="ArialMT, Arial" font-size="12" font-weight="normal" fill="#040404">
                <tspan x="9.66308594" y="16">3</tspan>
            </text>
        </g>
        <g id="Group-3" stroke-width="1" fill-rule="evenodd" transform="translate(77, 58)">
            <rect id="Rectangle" stroke="#EF4035" fill="#C9D6A5" x="0.5" y="0.5" width="23" height="23"></rect>
            <text id="2" font-family="ArialMT, Arial" font-size="12" font-weight="normal" fill="#040404">
                <tspan x="8.66308594" y="16">2</tspan>
            </text>
        </g>
        <g id="Group-4" stroke-width="1" fill-rule="evenodd" transform="translate(77, 32)">
            <rect id="Rectangle" stroke="#EF4035" x="0.5" y="0.5" width="23" height="23"></rect>
            <text id="1" font-family="ArialMT, Arial" font-size="12" font-weight="normal" fill="#040404">
                <tspan x="8.66308594" y="16">1</tspan>
            </text>
        </g>
        <g id="Group-5" stroke-width="1" fill-rule="evenodd" transform="translate(77, 111)">
            <rect id="Rectangle" stroke="#BDBBBB" x="0.5" y="0.5" width="23" height="23"></rect>
            <text id="4" font-family="ArialMT, Arial" font-size="12" font-weight="normal" fill="#040404">
                <tspan x="8.66308594" y="16">4</tspan>
            </text>
        </g>
        <g id="Group-2" stroke-width="1" fill-rule="evenodd" transform="translate(77, 189)">
            <rect id="Rectangle" stroke="#BDBBBB" fill="#C9D6A5" x="0.5" y="0.5" width="23" height="23"></rect>
            <text id="7" font-family="ArialMT, Arial" font-size="12" font-weight="normal" fill="#040404">
                <tspan x="8.66308594" y="16">7</tspan>
            </text>
        </g>
        <g id="Group-3" stroke-width="1" fill-rule="evenodd" transform="translate(77, 163)">
            <rect id="Rectangle" stroke="#BDBBBB" x="0.5" y="0.5" width="23" height="23"></rect>
            <text id="6" font-family="ArialMT, Arial" font-size="12" font-weight="normal" fill="#040404">
                <tspan x="8.66308594" y="16">6</tspan>
            </text>
        </g>
        <g id="Group-4" stroke-width="1" fill-rule="evenodd" transform="translate(77, 137)">
            <rect id="Rectangle" stroke="#BDBBBB" x="0.5" y="0.5" width="23" height="23"></rect>
            <text id="5" font-family="ArialMT, Arial" font-size="12" font-weight="normal" fill="#040404">
                <tspan x="8.66308594" y="16">5</tspan>
            </text>
        </g>
        <g id="Group-5" stroke-width="1" fill-rule="evenodd" transform="translate(77, 215)">
            <rect id="Rectangle" stroke="#BDBBBB" fill="#C9D6A5" x="0.5" y="0.5" width="23" height="23"></rect>
            <text id="8" font-family="ArialMT, Arial" font-size="12" font-weight="normal" fill="#040404">
                <tspan x="8.66308594" y="16">8</tspan>
            </text>
        </g>
        <g id="Group-5" stroke-width="1" fill-rule="evenodd" transform="translate(77, 267)">
            <rect id="Rectangle" stroke="#BDBBBB" x="0.5" y="0.5" width="23" height="23"></rect>
            <text id="10" font-family="ArialMT, Arial" font-size="12" font-weight="normal" fill="#040404">
                <tspan x="5.32617188" y="16">10</tspan>
            </text>
        </g>
        <g id="Group-4" stroke-width="1" fill-rule="evenodd" transform="translate(77, 241)">
            <rect id="Rectangle" stroke="#BDBBBB" fill="#C9D6A5" x="0.5" y="0.5" width="23" height="23"></rect>
            <text id="9" font-family="ArialMT, Arial" font-size="12" font-weight="normal" fill="#040404">
                <tspan x="8.66308594" y="16">9</tspan>
            </text>
        </g>
        <g id="Group-5" stroke-width="1" fill-rule="evenodd" transform="translate(77, 319)">
            <rect id="Rectangle" stroke="#BDBBBB" x="0.5" y="0.5" width="23" height="23"></rect>
            <text id="12" font-family="ArialMT, Arial" font-size="12" font-weight="normal" fill="#040404">
                <tspan x="5.32617188" y="16">12</tspan>
            </text>
        </g>
        <g id="Group-5" stroke-width="1" fill-rule="evenodd" transform="translate(77, 293)">
            <rect id="Rectangle" stroke="#BDBBBB" x="0.5" y="0.5" width="23" height="23"></rect>
            <text id="11" font-family="ArialMT, Arial" font-size="12" font-weight="normal" fill="#040404">
                <tspan x="5.77148438" y="16">11</tspan>
            </text>
        </g>
        <text id="[1,-2,-3]" font-family="HelveticaNeue-Light, Helvetica Neue" font-size="16" font-weight="300" fill="#000000">
            <tspan x="165.904" y="24">[1, 2, 3]</tspan>
        </text>
        <text id="[4,-5,-6]" font-family="HelveticaNeue-Light, Helvetica Neue" font-size="16" font-weight="300" fill="#000000">
            <tspan x="165.904" y="50">[4, 5, 6]</tspan>
        </text>
        <text id="[7,-8,-9]" font-family="HelveticaNeue-Light, Helvetica Neue" font-size="16" font-weight="300" fill="#000000">
            <tspan x="165.904" y="76">[7, 8, 9]</tspan>
        </text>
        <text id="[10,-11,-12]" font-family="HelveticaNeue-Light, Helvetica Neue" font-size="16" font-weight="300" fill="#000000">
            <tspan x="165.56" y="101">[10, 11, 12]</tspan>
        </text>
        <path id="Line-3" d="M154.809343,13.3190816 L155.245131,13.5642122 L163.245131,18.0642122 L164.019864,18.5 L163.245131,18.9357878 L155.245131,23.4357878 L154.809343,23.6809184 L154.319082,22.8093429 L154.754869,22.5642122 L161.091,19 L101,19 L101,18 L161.091,18 L154.754869,14.4357878 L154.319082,14.1906571 L154.809343,13.3190816 Z" fill="#000000" fill-rule="nonzero"></path>
        <path id="Line-3" d="M154.809343,39.3190816 L155.245131,39.5642122 L163.245131,44.0642122 L164.019864,44.5 L163.245131,44.9357878 L155.245131,49.4357878 L154.809343,49.6809184 L154.319082,48.8093429 L154.754869,48.5642122 L161.091,45 L101,45 L101,44 L161.091,44 L154.754869,40.4357878 L154.319082,40.1906571 L154.809343,39.3190816 Z" fill="#000000" fill-rule="nonzero"></path>
        <path id="Line-3" d="M154.809343,65.3190816 L155.245131,65.5642122 L163.245131,70.0642122 L164.019864,70.5 L163.245131,70.9357878 L155.245131,75.4357878 L154.809343,75.6809184 L154.319082,74.8093429 L154.754869,74.5642122 L161.089,71 L101,71 L101,70 L161.093,70 L154.754869,66.4357878 L154.319082,66.1906571 L154.809343,65.3190816 Z" fill="#000000" fill-rule="nonzero"></path>
        <path id="Line-3" d="M154.809343,91.3190816 L155.245131,91.5642122 L163.245131,96.0642122 L164.019864,96.5 L163.245131,96.9357878 L155.245131,101.435788 L154.809343,101.680918 L154.319082,100.809343 L154.754869,100.564212 L161.091,97 L101,97 L101,96 L161.091,96 L154.754869,92.4357878 L154.319082,92.1906571 L154.809343,91.3190816 Z" fill="#000000" fill-rule="nonzero"></path>
        <g id="Group" stroke-width="1" fill-rule="evenodd" transform="translate(101, 115)">
            <path id="Line-3" d="M53.8093429,3.31908161 L54.2451306,3.56421223 L62.2451306,8.06421223 L63.0198644,8.5 L62.2451306,8.93578777 L54.2451306,13.4357878 L53.8093429,13.6809184 L53.3190816,12.8093429 L53.7548694,12.5642122 L60.091,9 L0,9 L0,8 L60.091,8 L53.7548694,4.43578777 L53.3190816,4.19065715 L53.8093429,3.31908161 Z" fill="#000000" fill-rule="nonzero"></path>
            <text id="∅" font-family="AppleSymbols, Apple Symbols" font-size="22" font-weight="normal" fill="#040404">
                <tspan x="64.1098633" y="15">∅</tspan>
            </text>
        </g>
        <g id="Group" stroke-width="1" fill-rule="evenodd" transform="translate(101, 141)">
            <path id="Line-3" d="M53.8093429,3.31908161 L54.2451306,3.56421223 L62.2451306,8.06421223 L63.0198644,8.5 L62.2451306,8.93578777 L54.2451306,13.4357878 L53.8093429,13.6809184 L53.3190816,12.8093429 L53.7548694,12.5642122 L60.091,9 L0,9 L0,8 L60.091,8 L53.7548694,4.43578777 L53.3190816,4.19065715 L53.8093429,3.31908161 Z" fill="#000000" fill-rule="nonzero"></path>
            <text id="∅" font-family="AppleSymbols, Apple Symbols" font-size="22" font-weight="normal" fill="#040404">
                <tspan x="64.1098633" y="15">∅</tspan>
            </text>
        </g>
        <g id="Group" stroke-width="1" fill-rule="evenodd" transform="translate(101, 167)">
            <path id="Line-3" d="M53.8093429,3.31908161 L54.2451306,3.56421223 L62.2451306,8.06421223 L63.0198644,8.5 L62.2451306,8.93578777 L54.2451306,13.4357878 L53.8093429,13.6809184 L53.3190816,12.8093429 L53.7548694,12.5642122 L60.091,9 L0,9 L0,8 L60.091,8 L53.7548694,4.43578777 L53.3190816,4.19065715 L53.8093429,3.31908161 Z" fill="#000000" fill-rule="nonzero"></path>
            <text id="∅" font-family="AppleSymbols, Apple Symbols" font-size="22" font-weight="normal" fill="#040404">
                <tspan x="64.1098633" y="15">∅</tspan>
            </text>
        </g>
        <g id="Group" stroke-width="1" fill-rule="evenodd" transform="translate(101, 193)">
            <path id="Line-3" d="M53.8093429,3.31908161 L54.2451306,3.56421223 L62.2451306,8.06421223 L63.0198644,8.5 L62.2451306,8.93578777 L54.2451306,13.4357878 L53.8093429,13.6809184 L53.3190816,12.8093429 L53.7548694,12.5642122 L60.091,9 L0,9 L0,8 L60.091,8 L53.7548694,4.43578777 L53.3190816,4.19065715 L53.8093429,3.31908161 Z" fill="#000000" fill-rule="nonzero"></path>
            <text id="∅" font-family="AppleSymbols, Apple Symbols" font-size="22" font-weight="normal" fill="#040404">
                <tspan x="64.1098633" y="15">∅</tspan>
            </text>
        </g>
        <g id="Group" stroke-width="1" fill-rule="evenodd" transform="translate(101, 219)">
            <path id="Line-3" d="M53.8093429,3.31908161 L54.2451306,3.56421223 L62.2451306,8.06421223 L63.0198644,8.5 L62.2451306,8.93578777 L54.2451306,13.4357878 L53.8093429,13.6809184 L53.3190816,12.8093429 L53.7548694,12.5642122 L60.091,9 L0,9 L0,8 L60.091,8 L53.7548694,4.43578777 L53.3190816,4.19065715 L53.8093429,3.31908161 Z" fill="#000000" fill-rule="nonzero"></path>
            <text id="∅" font-family="AppleSymbols, Apple Symbols" font-size="22" font-weight="normal" fill="#040404">
                <tspan x="64.1098633" y="15">∅</tspan>
            </text>
        </g>
        <g id="Group" stroke-width="1" fill-rule="evenodd" transform="translate(101, 245)">
            <path id="Line-3" d="M53.8093429,3.31908161 L54.2451306,3.56421223 L62.2451306,8.06421223 L63.0198644,8.5 L62.2451306,8.93578777 L54.2451306,13.4357878 L53.8093429,13.6809184 L53.3190816,12.8093429 L53.7548694,12.5642122 L60.091,9 L0,9 L0,8 L60.091,8 L53.7548694,4.43578777 L53.3190816,4.19065715 L53.8093429,3.31908161 Z" fill="#000000" fill-rule="nonzero"></path>
            <text id="∅" font-family="AppleSymbols, Apple Symbols" font-size="22" font-weight="normal" fill="#040404">
                <tspan x="64.1098633" y="15">∅</tspan>
            </text>
        </g>
        <g id="Group" stroke-width="1" fill-rule="evenodd" transform="translate(101, 271)">
            <path id="Line-3" d="M53.8093429,3.31908161 L54.2451306,3.56421223 L62.2451306,8.06421223 L63.0198644,8.5 L62.2451306,8.93578777 L54.2451306,13.4357878 L53.8093429,13.6809184 L53.3190816,12.8093429 L53.7548694,12.5642122 L60.091,9 L0,9 L0,8 L60.091,8 L53.7548694,4.43578777 L53.3190816,4.19065715 L53.8093429,3.31908161 Z" fill="#000000" fill-rule="nonzero"></path>
            <text id="∅" font-family="AppleSymbols, Apple Symbols" font-size="22" font-weight="normal" fill="#040404">
                <tspan x="64.1098633" y="15">∅</tspan>
            </text>
        </g>
        <g id="Group" stroke-width="1" fill-rule="evenodd" transform="translate(101, 297)">
            <path id="Line-3" d="M53.8093429,3.31908161 L54.2451306,3.56421223 L62.2451306,8.06421223 L63.0198644,8.5 L62.2451306,8.93578777 L54.2451306,13.4357878 L53.8093429,13.6809184 L53.3190816,12.8093429 L53.7548694,12.5642122 L60.091,9 L0,9 L0,8 L60.091,8 L53.7548694,4.43578777 L53.3190816,4.19065715 L53.8093429,3.31908161 Z" fill="#000000" fill-rule="nonzero"></path>
            <text id="∅" font-family="AppleSymbols, Apple Symbols" font-size="22" font-weight="normal" fill="#040404">
                <tspan x="64.1098633" y="15">∅</tspan>
            </text>
        </g>
        <g id="Group" stroke-width="1" fill-rule="evenodd" transform="translate(101, 323)">
            <path id="Line-3" d="M53.8093429,3.31908161 L54.2451306,3.56421223 L62.2451306,8.06421223 L63.0198644,8.5 L62.2451306,8.93578777 L54.2451306,13.4357878 L53.8093429,13.6809184 L53.3190816,12.8093429 L53.7548694,12.5642122 L60.091,9 L0,9 L0,8 L60.091,8 L53.7548694,4.43578777 L53.3190816,4.19065715 L53.8093429,3.31908161 Z" fill="#000000" fill-rule="nonzero"></path>
            <text id="∅" font-family="AppleSymbols, Apple Symbols" font-size="22" font-weight="normal" fill="#040404">
                <tspan x="64.1098633" y="15">∅</tspan>
            </text>
        </g>
    </g>
</svg>